<svg version="1.1" xmlns="http://www.w3.org/2000/svg" xmlns:xlink="http://www.w3.org/1999/xlink" width="1638" height="1008"><defs/><g><g transform="translate(-30,-70) scale(1,1)"><rect fill="#C0C0C0" stroke="none" x="159" y="847" width="163" height="72" opacity="0.2"/></g><g transform="translate(-30,-70) scale(1,1)"><rect fill="#ffffff" stroke="none" x="152" y="840" width="163" height="72"/></g><g transform="translate(-30,-70) scale(1,1)"><path fill="none" stroke="#000000" d="M 152 840 L 315 840 L 315 912 L 152 912 L 152 840 Z Z" stroke-miterlimit="10"/></g><g transform="translate(-30,-70) scale(1,1)"><path fill="none" stroke="#000000" d="M 152 865 L 315 865" stroke-miterlimit="10"/></g><g transform="translate(-30,-70) scale(1,1)"><path fill="none" stroke="#000000" d="M 152 875 L 315 875" stroke-miterlimit="10"/></g><g transform="translate(-30,-70) scale(1,1)"><g><path fill="none" stroke="none"/><text fill="#000000" stroke="none" font-family="Arial" font-size="13px" font-style="normal" font-weight="bold" text-decoration="none" x="200" y="859.5">WorldEntity</text></g></g><g transform="translate(-30,-70) scale(1,1)"><g><path fill="none" stroke="none"/><text fill="#000000" stroke="none" font-family="Arial" font-size="13px" font-style="normal" font-weight="normal" text-decoration="none" x="157" y="892.5">«constructor»+Transform()</text></g></g><g transform="translate(-30,-70) scale(1,1)"><g><path fill="none" stroke="none"/><text fill="#000000" stroke="none" font-family="Arial" font-size="13px" font-style="normal" font-weight="normal" text-decoration="none" x="157" y="907.5">+GetMatrix(): GetMatrix</text></g></g><g transform="translate(-30,-70) scale(1,1)"><rect fill="#C0C0C0" stroke="none" x="991" y="247" width="302" height="117" opacity="0.2"/></g><g transform="translate(-30,-70) scale(1,1)"><rect fill="#ffffff" stroke="none" x="984" y="240" width="302" height="117"/></g><g transform="translate(-30,-70) scale(1,1)"><path fill="none" stroke="#000000" d="M 984 240 L 1286 240 L 1286 357 L 984 357 L 984 240 Z Z" stroke-miterlimit="10"/></g><g transform="translate(-30,-70) scale(1,1)"><path fill="none" stroke="#000000" d="M 984 265 L 1286 265" stroke-miterlimit="10"/></g><g transform="translate(-30,-70) scale(1,1)"><path fill="none" stroke="#000000" d="M 984 275 L 1286 275" stroke-miterlimit="10"/></g><g transform="translate(-30,-70) scale(1,1)"><g><path fill="none" stroke="none"/><text fill="#000000" stroke="none" font-family="Arial" font-size="13px" font-style="normal" font-weight="bold" text-decoration="none" x="1107.5" y="259.5">Resource</text></g></g><g transform="translate(-30,-70) scale(1,1)"><g><path fill="none" stroke="none"/><text fill="#000000" stroke="none" font-family="Arial" font-size="13px" font-style="normal" font-weight="normal" text-decoration="none" x="989" y="292.5">«constructor»+Resource(name: const std::string&amp;)</text></g></g><g transform="translate(-30,-70) scale(1,1)"><g><path fill="none" stroke="none"/><text fill="#000000" stroke="none" font-family="Arial" font-size="13px" font-style="normal" font-weight="normal" text-decoration="none" x="989" y="307.5">«constructor»+virtual ~Resource()</text></g></g><g transform="translate(-30,-70) scale(1,1)"><g><path fill="none" stroke="none"/><text fill="#000000" stroke="none" font-family="Arial" font-size="13px" font-style="normal" font-weight="normal" text-decoration="none" x="989" y="322.5">+Bind(): Bind</text></g></g><g transform="translate(-30,-70) scale(1,1)"><g><path fill="none" stroke="none"/><text fill="#000000" stroke="none" font-family="Arial" font-size="13px" font-style="normal" font-weight="normal" text-decoration="none" x="989" y="337.5">+Unbind(): Unbind</text></g></g><g transform="translate(-30,-70) scale(1,1)"><g><path fill="none" stroke="none"/><text fill="#000000" stroke="none" font-family="Arial" font-size="13px" font-style="normal" font-weight="normal" text-decoration="none" x="989" y="352.5">+EnsureCreated(): EnsureCreated</text></g></g><g transform="translate(-30,-70) scale(1,1)"><rect fill="#C0C0C0" stroke="none" x="1183" y="391" width="482" height="250" opacity="0.2"/></g><g transform="translate(-30,-70) scale(1,1)"><rect fill="#ffffff" stroke="none" x="1176" y="384" width="482" height="250"/></g><g transform="translate(-30,-70) scale(1,1)"><path fill="none" stroke="#000000" d="M 1176 384 L 1658 384 L 1658 634 L 1176 634 L 1176 384 Z Z" stroke-miterlimit="10"/></g><g transform="translate(-30,-70) scale(1,1)"><path fill="none" stroke="#000000" d="M 1176 409 L 1658 409" stroke-miterlimit="10"/></g><g transform="translate(-30,-70) scale(1,1)"><path fill="none" stroke="#000000" d="M 1176 432 L 1658 432" stroke-miterlimit="10"/></g><g transform="translate(-30,-70) scale(1,1)"><g><path fill="none" stroke="none"/><text fill="#000000" stroke="none" font-family="Arial" font-size="13px" font-style="normal" font-weight="bold" text-decoration="none" x="1394" y="403.5">Material</text></g></g><g transform="translate(-30,-70) scale(1,1)"><g><path fill="none" stroke="none"/><text fill="#000000" stroke="none" font-family="Arial" font-size="13px" font-style="normal" font-weight="normal" text-decoration="none" x="1181" y="426.5">+PolygonMode FillType: AsteroidsGame</text></g></g><g transform="translate(-30,-70) scale(1,1)"><g><path fill="none" stroke="none"/><text fill="#000000" stroke="none" font-family="Arial" font-size="13px" font-style="normal" font-weight="normal" text-decoration="none" x="1181" y="449.5">+Build(vertexShaderSource: std::string, fragmentShaderSource: std::string): Build</text></g></g><g transform="translate(-30,-70) scale(1,1)"><g><path fill="none" stroke="none"/><text fill="#000000" stroke="none" font-family="Arial" font-size="13px" font-style="normal" font-weight="normal" text-decoration="none" x="1181" y="464.5">+Build(path: const std::string&amp;): Build</text></g></g><g transform="translate(-30,-70) scale(1,1)"><g><path fill="none" stroke="none"/><text fill="#000000" stroke="none" font-family="Arial" font-size="13px" font-style="normal" font-weight="normal" text-decoration="none" x="1181" y="479.5">+OnDispose(): OnDispose</text></g></g><g transform="translate(-30,-70) scale(1,1)"><g><path fill="none" stroke="none"/><text fill="#000000" stroke="none" font-family="Arial" font-size="13px" font-style="normal" font-weight="normal" text-decoration="none" x="1181" y="494.5">+Program(): Program</text></g></g><g transform="translate(-30,-70) scale(1,1)"><g><path fill="none" stroke="none"/><text fill="#000000" stroke="none" font-family="Arial" font-size="13px" font-style="normal" font-weight="normal" text-decoration="none" x="1181" y="509.5">+GetShaderLog(shader: GLuint): GetShaderLog</text></g></g><g transform="translate(-30,-70) scale(1,1)"><g><path fill="none" stroke="none"/><text fill="#000000" stroke="none" font-family="Arial" font-size="13px" font-style="normal" font-weight="normal" text-decoration="none" x="1181" y="524.5">+GetProgramLog(program: GLuint): GetProgramLog</text></g></g><g transform="translate(-30,-70) scale(1,1)"><g><path fill="none" stroke="none"/><text fill="#000000" stroke="none" font-family="Arial" font-size="13px" font-style="normal" font-weight="normal" text-decoration="none" x="1181" y="539.5">+SetUniforms(time: const GameTime&amp;): SetUniforms</text></g></g><g transform="translate(-30,-70) scale(1,1)"><g><path fill="none" stroke="none"/><text fill="#000000" stroke="none" font-family="Arial" font-size="13px" font-style="normal" font-weight="normal" text-decoration="none" x="1181" y="554.5">+Bind(): Bind</text></g></g><g transform="translate(-30,-70) scale(1,1)"><g><path fill="none" stroke="none"/><text fill="#000000" stroke="none" font-family="Arial" font-size="13px" font-style="normal" font-weight="normal" text-decoration="none" x="1181" y="569.5">+void SetUniform(name: const std::string&amp;, value: const T&amp;): void SetUniform</text></g></g><g transform="translate(-30,-70) scale(1,1)"><g><path fill="none" stroke="none"/><text fill="#000000" stroke="none" font-family="Arial" font-size="13px" font-style="normal" font-weight="normal" text-decoration="none" x="1181" y="584.5">+void SetUniform(location: int, value: float): void SetUniform</text></g></g><g transform="translate(-30,-70) scale(1,1)"><g><path fill="none" stroke="none"/><text fill="#000000" stroke="none" font-family="Arial" font-size="13px" font-style="normal" font-weight="normal" text-decoration="none" x="1181" y="599.5">+void SetUniform(location: int, value: int): void SetUniform</text></g></g><g transform="translate(-30,-70) scale(1,1)"><g><path fill="none" stroke="none"/><text fill="#000000" stroke="none" font-family="Arial" font-size="13px" font-style="normal" font-weight="normal" text-decoration="none" x="1181" y="614.5">+void SetUniform(location: int, m: const Matrix&amp;): void SetUniform</text></g></g><g transform="translate(-30,-70) scale(1,1)"><g><path fill="none" stroke="none"/><text fill="#000000" stroke="none" font-family="Arial" font-size="13px" font-style="normal" font-weight="normal" text-decoration="none" x="1181" y="629.5">-CompileSuccessful(program: GLint): CompileSuccessful</text></g></g><g transform="translate(-30,-70) scale(1,1)"><rect fill="#C0C0C0" stroke="none" x="487" y="807" width="291" height="102" opacity="0.2"/></g><g transform="translate(-30,-70) scale(1,1)"><rect fill="#ffffff" stroke="none" x="480" y="800" width="291" height="102"/></g><g transform="translate(-30,-70) scale(1,1)"><path fill="none" stroke="#000000" d="M 480 800 L 771 800 L 771 902 L 480 902 L 480 800 Z Z" stroke-miterlimit="10"/></g><g transform="translate(-30,-70) scale(1,1)"><path fill="none" stroke="#000000" d="M 480 825 L 771 825" stroke-miterlimit="10"/></g><g transform="translate(-30,-70) scale(1,1)"><path fill="none" stroke="#000000" d="M 480 835 L 771 835" stroke-miterlimit="10"/></g><g transform="translate(-30,-70) scale(1,1)"><g><path fill="none" stroke="none"/><text fill="#000000" stroke="none" font-family="Arial" font-size="13px" font-style="normal" font-weight="bold" text-decoration="none" x="612.5" y="819.5">Ship</text></g></g><g transform="translate(-30,-70) scale(1,1)"><g><path fill="none" stroke="none"/><text fill="#000000" stroke="none" font-family="Arial" font-size="13px" font-style="normal" font-weight="normal" text-decoration="none" x="485" y="852.5">«constructor»+Ship()</text></g></g><g transform="translate(-30,-70) scale(1,1)"><g><path fill="none" stroke="none"/><text fill="#000000" stroke="none" font-family="Arial" font-size="13px" font-style="normal" font-weight="normal" text-decoration="none" x="485" y="867.5">+OnInitialize(): OnInitialize</text></g></g><g transform="translate(-30,-70) scale(1,1)"><g><path fill="none" stroke="none"/><text fill="#000000" stroke="none" font-family="Arial" font-size="13px" font-style="normal" font-weight="normal" text-decoration="none" x="485" y="882.5">+OnUpdate(time: const GameTime&amp;): OnUpdate</text></g></g><g transform="translate(-30,-70) scale(1,1)"><g><path fill="none" stroke="none"/><text fill="#000000" stroke="none" font-family="Arial" font-size="13px" font-style="normal" font-weight="normal" text-decoration="none" x="485" y="897.5">+OnRender(time: const GameTime&amp;): OnRender</text></g></g><g transform="translate(-30,-70) scale(1,1)"><path fill="none" stroke="#000000" d="M 316 871 L 479 860" stroke-miterlimit="10"/></g><g transform="translate(-30,-70) scale(1,1)"><path fill="#FFFFFF" stroke="none" d="M 459.28764187633055 869.7684664714684 L 479 860 L 458.15390901380687 852.9686067813444"/></g><g transform="translate(-30,-70) scale(1,1)"><path fill="none" stroke="#000000" d="M 459.28764187633055 869.7684664714684 L 479 860 L 458.15390901380687 852.9686067813444 L 459.28764187633055 869.7684664714684" stroke-miterlimit="10"/></g><g transform="translate(-30,-70) scale(1,1)"><rect fill="#C0C0C0" stroke="none" x="1029" y="87" width="217" height="87" opacity="0.2"/></g><g transform="translate(-30,-70) scale(1,1)"><rect fill="#ffffff" stroke="none" x="1022" y="80" width="217" height="87"/></g><g transform="translate(-30,-70) scale(1,1)"><path fill="none" stroke="#000000" d="M 1022 80 L 1239 80 L 1239 167 L 1022 167 L 1022 80 Z Z" stroke-miterlimit="10"/></g><g transform="translate(-30,-70) scale(1,1)"><path fill="none" stroke="#000000" d="M 1022 105 L 1239 105" stroke-miterlimit="10"/></g><g transform="translate(-30,-70) scale(1,1)"><path fill="none" stroke="#000000" d="M 1022 115 L 1239 115" stroke-miterlimit="10"/></g><g transform="translate(-30,-70) scale(1,1)"><g><path fill="none" stroke="none"/><text fill="#000000" stroke="none" font-family="Arial" font-size="13px" font-style="normal" font-weight="bold" text-decoration="none" x="1085.5" y="99.5">AsteroidsGame</text></g></g><g transform="translate(-30,-70) scale(1,1)"><g><path fill="none" stroke="none"/><text fill="#000000" stroke="none" font-family="Arial" font-size="13px" font-style="normal" font-weight="normal" text-decoration="none" x="1027" y="132.5">«constructor»+AsteroidsGame()</text></g></g><g transform="translate(-30,-70) scale(1,1)"><g><path fill="none" stroke="none"/><text fill="#000000" stroke="none" font-family="Arial" font-size="13px" font-style="normal" font-weight="normal" text-decoration="none" x="1027" y="147.5">+OnCreateScene(): OnCreateScene</text></g></g><g transform="translate(-30,-70) scale(1,1)"><g><path fill="none" stroke="none"/><text fill="#000000" stroke="none" font-family="Arial" font-size="13px" font-style="normal" font-weight="normal" text-decoration="none" x="1027" y="162.5">+CreateShip(): CreateShip</text></g></g><g transform="translate(-30,-70) scale(1,1)"><rect fill="#C0C0C0" stroke="none" x="487" y="975" width="278" height="100" opacity="0.2"/></g><g transform="translate(-30,-70) scale(1,1)"><rect fill="#ffffff" stroke="none" x="480" y="968" width="278" height="100"/></g><g transform="translate(-30,-70) scale(1,1)"><path fill="none" stroke="#000000" d="M 480 968 L 758 968 L 758 1068 L 480 1068 L 480 968 Z Z" stroke-miterlimit="10"/></g><g transform="translate(-30,-70) scale(1,1)"><path fill="none" stroke="#000000" d="M 480 993 L 758 993" stroke-miterlimit="10"/></g><g transform="translate(-30,-70) scale(1,1)"><path fill="none" stroke="#000000" d="M 480 1016 L 758 1016" stroke-miterlimit="10"/></g><g transform="translate(-30,-70) scale(1,1)"><g><path fill="none" stroke="none"/><text fill="#000000" stroke="none" font-family="Arial" font-size="13px" font-style="normal" font-weight="bold" text-decoration="none" x="596.5" y="987.5">Camera</text></g></g><g transform="translate(-30,-70) scale(1,1)"><g><path fill="none" stroke="none"/><text fill="#000000" stroke="none" font-family="Arial" font-size="13px" font-style="normal" font-weight="normal" text-decoration="none" x="485" y="1010.5">-float m_previousAspectRatio: AsteroidsGame</text></g></g><g transform="translate(-30,-70) scale(1,1)"><g><path fill="none" stroke="none"/><text fill="#000000" stroke="none" font-family="Arial" font-size="13px" font-style="normal" font-weight="normal" text-decoration="none" x="485" y="1033.5">«constructor»+Camera()</text></g></g><g transform="translate(-30,-70) scale(1,1)"><g><path fill="none" stroke="none"/><text fill="#000000" stroke="none" font-family="Arial" font-size="13px" font-style="normal" font-weight="normal" text-decoration="none" x="485" y="1048.5">+GetProjectionMatrix(): GetProjectionMatrix</text></g></g><g transform="translate(-30,-70) scale(1,1)"><g><path fill="none" stroke="none"/><text fill="#000000" stroke="none" font-family="Arial" font-size="13px" font-style="normal" font-weight="normal" text-decoration="none" x="485" y="1063.5">+GetViewMatrix(): GetViewMatrix</text></g></g><g transform="translate(-30,-70) scale(1,1)"><path fill="none" stroke="#000000" d="M 316 907 L 480 967" stroke-miterlimit="10"/></g><g transform="translate(-30,-70) scale(1,1)"><path fill="#FFFFFF" stroke="none" d="M 458.019374492087 967.92309386353 L 480 967 L 463.8046247180591 952.1100765792064"/></g><g transform="translate(-30,-70) scale(1,1)"><path fill="none" stroke="#000000" d="M 458.019374492087 967.92309386353 L 480 967 L 463.8046247180591 952.1100765792064 L 458.019374492087 967.92309386353" stroke-miterlimit="10"/></g><g transform="translate(-30,-70) scale(1,1)"><rect fill="#C0C0C0" stroke="none" x="47" y="271" width="345" height="387" opacity="0.2"/></g><g transform="translate(-30,-70) scale(1,1)"><rect fill="#ffffff" stroke="none" x="40" y="264" width="345" height="387"/></g><g transform="translate(-30,-70) scale(1,1)"><path fill="none" stroke="#000000" d="M 40 264 L 385 264 L 385 651 L 40 651 L 40 264 Z Z" stroke-miterlimit="10"/></g><g transform="translate(-30,-70) scale(1,1)"><path fill="none" stroke="#000000" d="M 40 289 L 385 289" stroke-miterlimit="10"/></g><g transform="translate(-30,-70) scale(1,1)"><path fill="none" stroke="#000000" d="M 40 299 L 385 299" stroke-miterlimit="10"/></g><g transform="translate(-30,-70) scale(1,1)"><g><path fill="none" stroke="none"/><text fill="#000000" stroke="none" font-family="Arial" font-size="13px" font-style="normal" font-weight="bold" text-decoration="none" x="176" y="283.5">GameObject</text></g></g><g transform="translate(-30,-70) scale(1,1)"><g><path fill="none" stroke="none"/><text fill="#000000" stroke="none" font-family="Arial" font-size="13px" font-style="normal" font-weight="normal" text-decoration="none" x="45" y="316.5">«constructor»+GameObject()</text></g></g><g transform="translate(-30,-70) scale(1,1)"><g><path fill="none" stroke="none"/><text fill="#000000" stroke="none" font-family="Arial" font-size="13px" font-style="normal" font-weight="normal" text-decoration="none" x="45" y="331.5">«constructor»+GameObject(name: const std::string&amp;)</text></g></g><g transform="translate(-30,-70) scale(1,1)"><g><path fill="none" stroke="none"/><text fill="#000000" stroke="none" font-family="Arial" font-size="13px" font-style="normal" font-weight="normal" text-decoration="none" x="45" y="346.5">+OnPreUpdate(time: const GameTime&amp;): OnPreUpdate</text></g></g><g transform="translate(-30,-70) scale(1,1)"><g><path fill="none" stroke="none"/><text fill="#000000" stroke="none" font-family="Arial" font-size="13px" font-style="normal" font-weight="normal" text-decoration="none" x="45" y="361.5">+OnUpdate(time: const GameTime&amp;): OnUpdate</text></g></g><g transform="translate(-30,-70) scale(1,1)"><g><path fill="none" stroke="none"/><text fill="#000000" stroke="none" font-family="Arial" font-size="13px" font-style="normal" font-weight="normal" text-decoration="none" x="45" y="376.5">+OnPostUpdate(time: const GameTime&amp;): OnPostUpdate</text></g></g><g transform="translate(-30,-70) scale(1,1)"><g><path fill="none" stroke="none"/><text fill="#000000" stroke="none" font-family="Arial" font-size="13px" font-style="normal" font-weight="normal" text-decoration="none" x="45" y="391.5">+OnPreRender(time: const GameTime&amp;): OnPreRender</text></g></g><g transform="translate(-30,-70) scale(1,1)"><g><path fill="none" stroke="none"/><text fill="#000000" stroke="none" font-family="Arial" font-size="13px" font-style="normal" font-weight="normal" text-decoration="none" x="45" y="406.5">+OnRender(time: const GameTime&amp;): OnRender</text></g></g><g transform="translate(-30,-70) scale(1,1)"><g><path fill="none" stroke="none"/><text fill="#000000" stroke="none" font-family="Arial" font-size="13px" font-style="normal" font-weight="normal" text-decoration="none" x="45" y="421.5">+OnPostRender(time: const GameTime&amp;): OnPostRender</text></g></g><g transform="translate(-30,-70) scale(1,1)"><g><path fill="none" stroke="none"/><text fill="#000000" stroke="none" font-family="Arial" font-size="13px" font-style="normal" font-weight="normal" text-decoration="none" x="45" y="436.5">+Render(time: const GameTime&amp;): Render</text></g></g><g transform="translate(-30,-70) scale(1,1)"><g><path fill="none" stroke="none"/><text fill="#000000" stroke="none" font-family="Arial" font-size="13px" font-style="normal" font-weight="normal" text-decoration="none" x="45" y="451.5">+Update(time: const GameTime&amp;): Update</text></g></g><g transform="translate(-30,-70) scale(1,1)"><g><path fill="none" stroke="none"/><text fill="#000000" stroke="none" font-family="Arial" font-size="13px" font-style="normal" font-weight="normal" text-decoration="none" x="45" y="466.5">+OnDispose(): OnDispose</text></g></g><g transform="translate(-30,-70) scale(1,1)"><g><path fill="none" stroke="none"/><text fill="#000000" stroke="none" font-family="Arial" font-size="13px" font-style="normal" font-weight="normal" text-decoration="none" x="45" y="481.5">+Initialize(): Initialize</text></g></g><g transform="translate(-30,-70) scale(1,1)"><g><path fill="none" stroke="none"/><text fill="#000000" stroke="none" font-family="Arial" font-size="13px" font-style="normal" font-weight="normal" text-decoration="none" x="45" y="496.5">+OnInitialize(): OnInitialize</text></g></g><g transform="translate(-30,-70) scale(1,1)"><g><path fill="none" stroke="none"/><text fill="#000000" stroke="none" font-family="Arial" font-size="13px" font-style="normal" font-weight="normal" text-decoration="none" x="45" y="511.5">+Dispose(): Dispose</text></g></g><g transform="translate(-30,-70) scale(1,1)"><g><path fill="none" stroke="none"/><text fill="#000000" stroke="none" font-family="Arial" font-size="13px" font-style="normal" font-weight="normal" text-decoration="none" x="45" y="526.5">+T&amp; Create(name: const std::string&amp;): T&amp; Create</text></g></g><g transform="translate(-30,-70) scale(1,1)"><g><path fill="none" stroke="none"/><text fill="#000000" stroke="none" font-family="Arial" font-size="13px" font-style="normal" font-weight="normal" text-decoration="none" x="45" y="541.5">+T&amp; GetObject(name: const std::string&amp;): T&amp; GetObject</text></g></g><g transform="translate(-30,-70) scale(1,1)"><g><path fill="none" stroke="none"/><text fill="#000000" stroke="none" font-family="Arial" font-size="13px" font-style="normal" font-weight="normal" text-decoration="none" x="45" y="556.5">+FindObject(name: const std::string&amp;): FindObject</text></g></g><g transform="translate(-30,-70) scale(1,1)"><g><path fill="none" stroke="none"/><text fill="#000000" stroke="none" font-family="Arial" font-size="13px" font-style="normal" font-weight="normal" text-decoration="none" x="45" y="571.5">-DoPreRender(time: const GameTime&amp;): DoPreRender</text></g></g><g transform="translate(-30,-70) scale(1,1)"><g><path fill="none" stroke="none"/><text fill="#000000" stroke="none" font-family="Arial" font-size="13px" font-style="normal" font-weight="normal" text-decoration="none" x="45" y="586.5">-DoPostRender(time: const GameTime&amp;): DoPostRender</text></g></g><g transform="translate(-30,-70) scale(1,1)"><g><path fill="none" stroke="none"/><text fill="#000000" stroke="none" font-family="Arial" font-size="13px" font-style="normal" font-weight="normal" text-decoration="none" x="45" y="601.5">-DoPreUpdate(time: const GameTime&amp;): DoPreUpdate</text></g></g><g transform="translate(-30,-70) scale(1,1)"><g><path fill="none" stroke="none"/><text fill="#000000" stroke="none" font-family="Arial" font-size="13px" font-style="normal" font-weight="normal" text-decoration="none" x="45" y="616.5">-DoPostUpdate(time: const GameTime&amp;): DoPostUpdate</text></g></g><g transform="translate(-30,-70) scale(1,1)"><g><path fill="none" stroke="none"/><text fill="#000000" stroke="none" font-family="Arial" font-size="13px" font-style="normal" font-weight="normal" text-decoration="none" x="45" y="631.5">-DoRender(time: const GameTime&amp;): DoRender</text></g></g><g transform="translate(-30,-70) scale(1,1)"><g><path fill="none" stroke="none"/><text fill="#000000" stroke="none" font-family="Arial" font-size="13px" font-style="normal" font-weight="normal" text-decoration="none" x="45" y="646.5">-DoUpdate(time: const GameTime&amp;): DoUpdate</text></g></g><g transform="translate(-30,-70) scale(1,1)"><path fill="none" stroke="#000000" d="M 386 465 L 1175 499" stroke-miterlimit="10"/></g><g transform="translate(-30,-70) scale(1,1)"><path fill="#FFFFFF" stroke="none" d="M 1154.3310346867463 506.53617096936625 L 1175 499 L 1155.0559568702688 489.7137120635089"/></g><g transform="translate(-30,-70) scale(1,1)"><path fill="none" stroke="#000000" d="M 1154.3310346867463 506.53617096936625 L 1175 499 L 1155.0559568702688 489.7137120635089 L 1154.3310346867463 506.53617096936625" stroke-miterlimit="10"/></g><g transform="translate(-30,-70) scale(1,1)"><path fill="none" stroke="#000000" d="M 386 427 L 983 324" stroke-miterlimit="10"/></g><g transform="translate(-30,-70) scale(1,1)"><path fill="#FFFFFF" stroke="none" d="M 964.401949153759 335.75212766781544 L 983 324 L 961.5391829624884 319.15920129705313"/></g><g transform="translate(-30,-70) scale(1,1)"><path fill="none" stroke="#000000" d="M 964.401949153759 335.75212766781544 L 983 324 L 961.5391829624884 319.15920129705313 L 964.401949153759 335.75212766781544" stroke-miterlimit="10"/></g><g transform="translate(-30,-70) scale(1,1)"><path fill="none" stroke="#000000" d="M 222 652 L 231 839" stroke-miterlimit="10"/></g><g transform="translate(-30,-70) scale(1,1)"><path fill="#FFFFFF" stroke="none" d="M 221.61360384253487 819.1028754043424 L 231 839 L 238.4322073538562 818.2934238984499"/></g><g transform="translate(-30,-70) scale(1,1)"><path fill="none" stroke="#000000" d="M 221.61360384253487 819.1028754043424 L 231 839 L 238.4322073538562 818.2934238984499 L 221.61360384253487 819.1028754043424" stroke-miterlimit="10"/></g><g transform="translate(-30,-70) scale(1,1)"><rect fill="#C0C0C0" stroke="none" x="615" y="559" width="514" height="205" opacity="0.2"/></g><g transform="translate(-30,-70) scale(1,1)"><rect fill="#ffffff" stroke="none" x="608" y="552" width="514" height="205"/></g><g transform="translate(-30,-70) scale(1,1)"><path fill="none" stroke="#000000" d="M 608 552 L 1122 552 L 1122 757 L 608 757 L 608 552 Z Z" stroke-miterlimit="10"/></g><g transform="translate(-30,-70) scale(1,1)"><path fill="none" stroke="#000000" d="M 608 577 L 1122 577" stroke-miterlimit="10"/></g><g transform="translate(-30,-70) scale(1,1)"><path fill="none" stroke="#000000" d="M 608 675 L 1122 675" stroke-miterlimit="10"/></g><g transform="translate(-30,-70) scale(1,1)"><g><path fill="none" stroke="none"/><text fill="#000000" stroke="none" font-family="Arial" font-size="13px" font-style="normal" font-weight="bold" text-decoration="none" x="849" y="571.5">Mesh</text></g></g><g transform="translate(-30,-70) scale(1,1)"><g><path fill="none" stroke="none"/><text fill="#000000" stroke="none" font-family="Arial" font-size="13px" font-style="normal" font-weight="normal" text-decoration="none" x="613" y="594.5">+BeginMode Type: AsteroidsGame</text></g></g><g transform="translate(-30,-70) scale(1,1)"><g><path fill="none" stroke="none"/><text fill="#000000" stroke="none" font-family="Arial" font-size="13px" font-style="normal" font-weight="normal" text-decoration="none" x="613" y="609.5">-size_t m_vertexCount: AsteroidsGame</text></g></g><g transform="translate(-30,-70) scale(1,1)"><g><path fill="none" stroke="none"/><text fill="#000000" stroke="none" font-family="Arial" font-size="13px" font-style="normal" font-weight="normal" text-decoration="none" x="613" y="624.5">-GLuint m_vertexBuffer: AsteroidsGame</text></g></g><g transform="translate(-30,-70) scale(1,1)"><g><path fill="none" stroke="none"/><text fill="#000000" stroke="none" font-family="Arial" font-size="13px" font-style="normal" font-weight="normal" text-decoration="none" x="613" y="639.5">-size_t m_indexCount: AsteroidsGame</text></g></g><g transform="translate(-30,-70) scale(1,1)"><g><path fill="none" stroke="none"/><text fill="#000000" stroke="none" font-family="Arial" font-size="13px" font-style="normal" font-weight="normal" text-decoration="none" x="613" y="654.5">-GLuint m_indexBuffer: AsteroidsGame</text></g></g><g transform="translate(-30,-70) scale(1,1)"><g><path fill="none" stroke="none"/><text fill="#000000" stroke="none" font-family="Arial" font-size="13px" font-style="normal" font-weight="normal" text-decoration="none" x="613" y="669.5">-GLuint m_vao: AsteroidsGame</text></g></g><g transform="translate(-30,-70) scale(1,1)"><g><path fill="none" stroke="none"/><text fill="#000000" stroke="none" font-family="Arial" font-size="13px" font-style="normal" font-weight="normal" text-decoration="none" x="613" y="692.5">«constructor»+Mesh(name: const std::string&amp;)</text></g></g><g transform="translate(-30,-70) scale(1,1)"><g><path fill="none" stroke="none"/><text fill="#000000" stroke="none" font-family="Arial" font-size="13px" font-style="normal" font-weight="normal" text-decoration="none" x="613" y="707.5">«constructor»+Mesh()</text></g></g><g transform="translate(-30,-70) scale(1,1)"><g><path fill="none" stroke="none"/><text fill="#000000" stroke="none" font-family="Arial" font-size="13px" font-style="normal" font-weight="normal" text-decoration="none" x="613" y="722.5">+OnInitialize(): OnInitialize</text></g></g><g transform="translate(-30,-70) scale(1,1)"><g><path fill="none" stroke="none"/><text fill="#000000" stroke="none" font-family="Arial" font-size="13px" font-style="normal" font-weight="normal" text-decoration="none" x="613" y="737.5">+void Initialize(vertices: TVertexCollection&amp;, indices: TIndexCollection&amp;): void Initialize</text></g></g><g transform="translate(-30,-70) scale(1,1)"><g><path fill="none" stroke="none"/><text fill="#000000" stroke="none" font-family="Arial" font-size="13px" font-style="normal" font-weight="normal" text-decoration="none" x="613" y="752.5">+OnRender(time: const GameTime&amp;): OnRender</text></g></g><g transform="translate(-30,-70) scale(1,1)"><path fill="none" stroke="#000000" d="M 386 509 L 607 576" stroke-miterlimit="10"/></g><g transform="translate(-30,-70) scale(1,1)"><path fill="#FFFFFF" stroke="none" d="M 585.1062903106396 578.1599713049036 L 607 576 L 589.9914790564579 562.0461397701894"/></g><g transform="translate(-30,-70) scale(1,1)"><path fill="none" stroke="#000000" d="M 585.1062903106396 578.1599713049036 L 607 576 L 589.9914790564579 562.0461397701894 L 585.1062903106396 578.1599713049036" stroke-miterlimit="10"/></g><g transform="translate(-30,-70) scale(1,1)"><rect fill="#C0C0C0" stroke="none" x="479" y="127" width="394" height="147" opacity="0.2"/></g><g transform="translate(-30,-70) scale(1,1)"><rect fill="#ffffff" stroke="none" x="472" y="120" width="394" height="147"/></g><g transform="translate(-30,-70) scale(1,1)"><path fill="none" stroke="#000000" d="M 472 120 L 866 120 L 866 267 L 472 267 L 472 120 Z Z" stroke-miterlimit="10"/></g><g transform="translate(-30,-70) scale(1,1)"><path fill="none" stroke="#000000" d="M 472 145 L 866 145" stroke-miterlimit="10"/></g><g transform="translate(-30,-70) scale(1,1)"><path fill="none" stroke="#000000" d="M 472 155 L 866 155" stroke-miterlimit="10"/></g><g transform="translate(-30,-70) scale(1,1)"><g><path fill="none" stroke="none"/><text fill="#000000" stroke="none" font-family="Arial" font-size="13px" font-style="normal" font-weight="bold" text-decoration="none" x="651.5" y="139.5">Game</text></g></g><g transform="translate(-30,-70) scale(1,1)"><g><path fill="none" stroke="none"/><text fill="#000000" stroke="none" font-family="Arial" font-size="13px" font-style="normal" font-weight="normal" text-decoration="none" x="477" y="172.5">«constructor»+Game()</text></g></g><g transform="translate(-30,-70) scale(1,1)"><g><path fill="none" stroke="none"/><text fill="#000000" stroke="none" font-family="Arial" font-size="13px" font-style="normal" font-weight="normal" text-decoration="none" x="477" y="187.5">+Run(): Run</text></g></g><g transform="translate(-30,-70) scale(1,1)"><g><path fill="none" stroke="none"/><text fill="#000000" stroke="none" font-family="Arial" font-size="13px" font-style="normal" font-weight="normal" text-decoration="none" x="477" y="202.5">+OnInitialize(): OnInitialize</text></g></g><g transform="translate(-30,-70) scale(1,1)"><g><path fill="none" stroke="none"/><text fill="#000000" stroke="none" font-family="Arial" font-size="13px" font-style="normal" font-weight="normal" text-decoration="none" x="477" y="217.5">+OnCreateScene(): OnCreateScene</text></g></g><g transform="translate(-30,-70) scale(1,1)"><g><path fill="none" stroke="none"/><text fill="#000000" stroke="none" font-family="Arial" font-size="13px" font-style="normal" font-weight="normal" text-decoration="none" x="477" y="232.5">+GetFramebufferSize(width: int*, height: int*): GetFramebufferSize</text></g></g><g transform="translate(-30,-70) scale(1,1)"><g><path fill="none" stroke="none"/><text fill="#000000" stroke="none" font-family="Arial" font-size="13px" font-style="normal" font-weight="normal" text-decoration="none" x="477" y="247.5">+Instance(): Instance</text></g></g><g transform="translate(-30,-70) scale(1,1)"><g><path fill="none" stroke="none"/><text fill="#000000" stroke="none" font-family="Arial" font-size="13px" font-style="normal" font-weight="normal" text-decoration="none" x="477" y="262.5">-Shutdown(): Shutdown</text></g></g><g transform="translate(-30,-70) scale(1,1)"><path fill="none" stroke="#000000" d="M 539 268 L 386 356" stroke-miterlimit="10"/></g><g transform="translate(-30,-70) scale(1,1)"><path fill="#FFFFFF" stroke="none" d="M 399.42138734192815 338.5682369848047 L 386 356 L 407.81647183849014 353.16423616632727"/></g><g transform="translate(-30,-70) scale(1,1)"><path fill="none" stroke="#000000" d="M 399.42138734192815 338.5682369848047 L 386 356 L 407.81647183849014 353.16423616632727 L 399.42138734192815 338.5682369848047" stroke-miterlimit="10"/></g><g transform="translate(-30,-70) scale(1,1)"><path fill="none" stroke="#000000" d="M 1021 140 L 867 163" stroke-miterlimit="10"/></g><g transform="translate(-30,-70) scale(1,1)"><path fill="#FFFFFF" stroke="none" d="M 885.8587927707842 151.67101349508187 L 867 163 L 888.3459834348118 168.32437707161483"/></g><g transform="translate(-30,-70) scale(1,1)"><path fill="none" stroke="#000000" d="M 885.8587927707842 151.67101349508187 L 867 163 L 888.3459834348118 168.32437707161483 L 885.8587927707842 151.67101349508187" stroke-miterlimit="10"/></g></g></svg>